<?xml version="1.0" encoding="utf-8"?>
<!-- Generator: Adobe Illustrator 24.3.0, SVG Export Plug-In . SVG Version: 6.00 Build 0)  -->
<svg version="1.1" id="Layer_1" xmlns="http://www.w3.org/2000/svg" xmlns:xlink="http://www.w3.org/1999/xlink" x="0px" y="0px"
	 viewBox="0 0 27 27" style="enable-background:new 0 0 27 27;" xml:space="preserve">
<style type="text/css">
	.st0{fill:#FFFFFF;}
</style>
<g>
	<path class="st0" d="M20.3,7.4c-1.2-0.6-2.6-1-3.9-1.2c-0.2,0.3-0.4,0.7-0.5,1c-1.5-0.2-2.9-0.2-4.4,0c-0.1-0.3-0.3-0.7-0.5-1
		C9.6,6.4,8.3,6.8,7,7.4c-2.5,3.8-3.2,7.4-2.8,11c1.7,1.2,3.3,2,4.8,2.5c0.4-0.5,0.7-1.1,1-1.7c-0.6-0.2-1.1-0.5-1.6-0.8
		c0.1-0.1,0.3-0.2,0.4-0.3c3.1,1.5,6.5,1.5,9.6,0c0.1,0.1,0.3,0.2,0.4,0.3c-0.5,0.3-1.1,0.6-1.6,0.8c0.3,0.6,0.6,1.2,1,1.7
		c1.6-0.5,3.2-1.2,4.8-2.5C23.5,14.2,22.4,10.6,20.3,7.4z M10.5,16.2c-0.9,0-1.7-0.9-1.7-1.9s0.8-2,1.7-2c1,0,1.7,0.9,1.7,2
		C12.2,15.3,11.4,16.2,10.5,16.2z M16.8,16.2c-0.9,0-1.7-0.9-1.7-1.9s0.8-2,1.7-2c1,0,1.7,0.9,1.7,2C18.5,15.3,17.8,16.2,16.8,16.2z
		"/>
</g>
</svg>
