<svg width="27" height="27" viewBox="0 0 27 27" fill="none" xmlns="http://www.w3.org/2000/svg">
<path d="M19.1877 7.32422C18.9325 7.32422 18.7249 7.5319 18.7249 7.78711C18.7249 8.04231 18.9325 8.24999 19.1877 8.24999C19.443 8.24999 19.6506 8.04235 19.6506 7.78711C19.6506 7.53187 19.443 7.32422 19.1877 7.32422Z" fill="white"/>
<path d="M13.6449 9.22656C11.3822 9.22656 9.54126 11.0675 9.54126 13.3302C9.54126 15.593 11.3822 17.4339 13.6449 17.4339C15.9077 17.4339 17.7486 15.593 17.7486 13.3303C17.7486 11.0675 15.9077 9.22656 13.6449 9.22656Z" fill="white"/>
<path d="M17.9514 3.79688H9.33841C6.45633 3.79688 4.11157 6.14163 4.11157 9.02375V17.6367C4.11157 20.5188 6.45633 22.8635 9.33841 22.8635H17.9514C20.8335 22.8635 23.1782 20.5188 23.1782 17.6367V9.02375C23.1782 6.14163 20.8335 3.79688 17.9514 3.79688ZM13.6449 18.5598C10.7613 18.5598 8.41531 16.2139 8.41531 13.3302C8.41531 10.4466 10.7613 8.10065 13.6449 8.10065C16.5285 8.10065 18.8745 10.4466 18.8745 13.3302C18.8745 16.2138 16.5285 18.5598 13.6449 18.5598ZM19.1873 9.37671C18.3112 9.37671 17.5984 8.66394 17.5984 7.78784C17.5984 6.91174 18.3112 6.19894 19.1873 6.19894C20.0634 6.19894 20.7762 6.91171 20.7762 7.7878C20.7762 8.6639 20.0634 9.37671 19.1873 9.37671Z" fill="white"/>
</svg>
