<?xml version="1.0" encoding="utf-8"?>
<!-- Generator: Adobe Illustrator 24.3.0, SVG Export Plug-In . SVG Version: 6.00 Build 0)  -->
<svg version="1.1" id="Layer_1" xmlns="http://www.w3.org/2000/svg" xmlns:xlink="http://www.w3.org/1999/xlink" x="0px" y="0px"
	 viewBox="0 0 27 27" style="enable-background:new 0 0 27 27;" xml:space="preserve">
<style type="text/css">
	.st0{display:none;fill:#FFFFFF;}
	.st1{fill:#FFFFFF;}
</style>
<path class="st0" d="M23.9,7.3c-0.7,0.3-1.5,0.5-2.3,0.6c0.8-0.5,1.5-1.3,1.8-2.2c-0.8,0.5-1.6,0.8-2.5,1c-0.7-0.8-1.8-1.3-2.9-1.3
	c-2.2,0-4,1.8-4,4c0,0.3,0,0.6,0.1,0.9c-3.3-0.2-6.3-1.8-8.2-4.2c-0.3,0.6-0.5,1.3-0.5,2c0,1.4,0.7,2.6,1.8,3.3
	c-0.6,0-1.3-0.2-1.8-0.5c0,0,0,0,0,0c0,1.9,1.4,3.6,3.2,3.9c-0.3,0.1-0.7,0.1-1,0.1c-0.3,0-0.5,0-0.8-0.1c0.5,1.6,2,2.7,3.7,2.8
	c-1.4,1.1-3.1,1.7-5,1.7c-0.3,0-0.6,0-1-0.1c1.8,1.1,3.9,1.8,6.1,1.8c7.4,0,11.4-6.1,11.4-11.4c0-0.2,0-0.3,0-0.5
	C22.7,8.8,23.4,8.1,23.9,7.3z"/>
<g id="XMLID_801_">
	<path id="XMLID_802_" class="st1" d="M9,9.9H5.1c-0.2,0-0.3,0.1-0.3,0.3v12.6c0,0.2,0.1,0.3,0.3,0.3H9c0.2,0,0.3-0.1,0.3-0.3V10.2
		C9.3,10,9.1,9.9,9,9.9z"/>
	<path id="XMLID_803_" class="st1" d="M7,3.6c-1.4,0-2.6,1.2-2.6,2.6c0,1.4,1.2,2.6,2.6,2.6c1.4,0,2.6-1.2,2.6-2.6
		C9.6,4.8,8.4,3.6,7,3.6z"/>
	<path id="XMLID_804_" class="st1" d="M18.9,9.6c-1.6,0-2.7,0.7-3.4,1.4v-0.8c0-0.2-0.1-0.3-0.3-0.3h-3.7c-0.2,0-0.3,0.1-0.3,0.3
		v12.6c0,0.2,0.1,0.3,0.3,0.3h3.9c0.2,0,0.3-0.1,0.3-0.3v-6.2c0-2.1,0.6-2.9,2-2.9c1.6,0,1.7,1.3,1.7,3v6.1c0,0.2,0.1,0.3,0.3,0.3
		h3.9c0.2,0,0.3-0.1,0.3-0.3v-6.9C23.9,12.7,23.3,9.6,18.9,9.6z"/>
</g>
</svg>
