<svg width="27" height="27" viewBox="0 0 27 27" fill="none" xmlns="http://www.w3.org/2000/svg">
<path fill-rule="evenodd" clip-rule="evenodd" d="M24.8117 17.7184V16.5941C24.8117 16.4887 24.7414 16.4184 24.5306 16.5238L19.1901 18.0697C19.1549 18.0697 19.1549 18.0697 19.1198 18.1049C18.6685 18.5827 18.2775 18.9401 18.0677 19.1318C17.9998 19.1939 17.951 19.2386 17.9252 19.2643C17.609 19.5454 17.1873 19.686 16.7657 19.686H14.8333V17.7184H16.3792C16.4144 17.7184 16.4495 17.7184 16.4846 17.6833L16.6955 17.5076C16.8008 17.4373 16.9062 17.3319 17.0116 17.2265L17.0117 17.2265C17.0837 17.1785 17.1393 17.114 17.1898 17.0556C17.2131 17.0286 17.2354 17.0028 17.2576 16.9805C17.3297 16.9325 17.3853 16.8681 17.4357 16.8097C17.4591 16.7826 17.4813 16.7569 17.5036 16.7346C17.5563 16.6643 17.6178 16.5941 17.6792 16.5238C17.7407 16.4535 17.8022 16.3833 17.8549 16.313C17.9603 16.2076 18.0306 16.1022 18.1008 15.9968L18.1009 15.9968C18.136 15.9441 18.1799 15.8914 18.2238 15.8387C18.2678 15.786 18.3117 15.7333 18.3468 15.6805C18.3715 15.6066 18.4134 15.5499 18.4605 15.4863C18.4805 15.4593 18.5015 15.4309 18.5225 15.3995C18.5928 15.2941 18.663 15.1887 18.6982 15.1184L18.6982 15.1183C18.8387 14.8724 18.9793 14.6265 19.0846 14.3806C19.1383 14.2732 19.1715 14.1658 19.1998 14.0741C19.2086 14.0458 19.2169 14.0189 19.2252 13.9941C19.2428 13.9238 19.2603 13.8623 19.2779 13.8008C19.2955 13.7393 19.313 13.6779 19.3306 13.6076C19.3324 13.5917 19.3341 13.5759 19.3359 13.5601C19.3691 13.263 19.3991 12.9944 19.3657 12.6941C19.3657 12.5887 19.3657 12.4833 19.3306 12.413C19.3306 12.3778 19.3306 12.3076 19.2955 12.2373C19.2603 11.9211 19.1549 11.64 19.0144 11.3589C18.9968 11.3062 18.9705 11.2535 18.9441 11.2008C18.9178 11.1481 18.8914 11.0954 18.8738 11.0427C18.8036 10.9373 18.7421 10.8319 18.6806 10.7265C18.6191 10.6211 18.5576 10.5157 18.4874 10.4103C18.4653 10.3441 18.4294 10.2918 18.397 10.2446C18.3778 10.2167 18.3599 10.1905 18.3468 10.1643C18.2941 10.0941 18.2326 10.015 18.1711 9.93596C18.1096 9.8569 18.0482 9.77785 17.9955 9.70758C17.9428 9.65487 17.8988 9.59339 17.8549 9.5319C17.811 9.47041 17.7671 9.40893 17.7144 9.35623C17.6617 9.30352 17.6178 9.25082 17.5738 9.19812C17.5299 9.14542 17.486 9.09271 17.4333 9.04001C17.0819 8.65353 16.7306 8.30217 16.4144 8.02109C16.3917 7.97571 16.3543 7.94499 16.3118 7.90999C16.2885 7.89079 16.2636 7.87031 16.2387 7.84541C15.9928 7.6346 15.7468 7.4238 15.5711 7.28326C15.4657 7.21299 15.3955 7.14272 15.3252 7.07245L15.3252 7.07244C15.2198 7.00217 15.1495 6.9319 15.1144 6.89677C15.1144 6.86163 15.0792 6.86163 15.0792 6.86163L14.8684 6.79136V5.10487C14.8684 4.82379 14.763 4.57785 14.5874 4.40217C14.4117 4.22649 14.1657 4.12109 13.8846 4.12109C13.3576 4.12109 12.9009 4.57785 12.9009 5.14001V6.29947L12.7955 6.26433L12.5144 6.19406L12.2684 6.1238L10.336 5.59677C10.2657 5.56163 10.1955 5.66704 10.2306 5.73731L10.5468 6.29947L10.6522 6.51028C10.6698 6.56298 10.6961 6.61568 10.7225 6.66839C10.7488 6.72109 10.7752 6.77379 10.7928 6.8265C10.8103 6.8792 10.8367 6.92312 10.863 6.96704C10.8894 7.01096 10.9157 7.05488 10.9333 7.10758C11.0387 7.31839 11.1441 7.56434 11.2495 7.81028L11.4603 8.33731C11.636 8.75893 11.8117 9.25082 11.9522 9.74271C12.0111 9.86045 12.0453 10.0028 12.0755 10.1286C12.0814 10.1529 12.0871 10.1767 12.0928 10.1995L12.1279 10.2697C12.1982 10.5157 12.2333 10.7265 12.2684 10.9724C12.3036 11.113 12.3387 11.2887 12.3387 11.4292C12.3387 11.517 12.3475 11.6049 12.3563 11.6927C12.3651 11.7805 12.3738 11.8684 12.3738 11.9562C12.409 12.1319 12.409 12.3076 12.409 12.4481C12.409 12.8697 12.3738 13.2562 12.3036 13.6076L12.1982 13.9238C12.1851 13.963 12.1671 14.0071 12.1479 14.0543C12.1156 14.1338 12.0797 14.2221 12.0576 14.3103C12.0225 14.4157 11.9874 14.4859 11.9522 14.5562L11.9522 14.5562C11.7765 14.9778 11.5657 15.4346 11.3198 15.8211C10.9684 16.4184 10.6522 16.9103 10.4063 17.2616C10.3711 17.3319 10.336 17.367 10.3009 17.4022C10.2306 17.5076 10.3009 17.6481 10.4414 17.6481H12.936V19.6157H10.4063C9.7387 19.6157 9.10627 19.2643 8.79006 18.6319C8.64952 18.3157 8.57924 17.9643 8.61438 17.6481C8.61438 17.5778 8.54411 17.4724 8.4387 17.4724H3.27384C3.20357 17.4724 3.1333 17.5427 3.1333 17.613V17.7184C3.1333 20.986 5.76843 23.6211 9.00087 23.6211H18.1711C19.8654 23.6211 20.837 22.0695 21.7969 20.5369C22.0711 20.0989 22.3444 19.6625 22.6333 19.2643C23.1252 18.5616 24.3549 17.9995 24.7063 17.8589C24.7765 17.8238 24.8117 17.7887 24.8117 17.7184ZM4.53899 15.1539L4.46872 15.2593C4.39845 15.3647 4.46872 15.5052 4.57412 15.5403H9.28223C9.3525 15.5403 9.38763 15.5052 9.42276 15.4701L9.42277 15.4701C9.49304 15.3998 9.56331 15.2944 9.59845 15.189C10.0201 14.5214 10.3714 13.7836 10.512 13.2214C10.793 11.8863 10.1606 9.77818 9.38763 8.05656C9.31736 7.91602 9.17683 7.91602 9.10655 8.02142L4.53899 15.1539Z" fill="white"/>
</svg>
