<svg width="27" height="27" viewBox="0 0 27 27" fill="none" xmlns="http://www.w3.org/2000/svg">
<path d="M23.9331 7.29753C23.2079 7.61562 22.4353 7.82647 21.6297 7.92884C22.4584 7.43403 23.0909 6.65647 23.3883 5.71925C22.6156 6.17994 21.7625 6.50534 20.8533 6.68694C20.1196 5.90572 19.0739 5.42188 17.9332 5.42188C15.7199 5.42188 13.9381 7.21831 13.9381 9.42059C13.9381 9.73747 13.9649 10.0422 14.0308 10.3322C10.7072 10.1701 7.76639 8.57722 5.79079 6.15069C5.44589 6.74909 5.24357 7.43403 5.24357 8.17137C5.24357 9.55587 5.95654 10.7832 7.01929 11.4937C6.37701 11.4815 5.74692 11.295 5.21311 11.0013C5.21311 11.0135 5.21311 11.0293 5.21311 11.0452C5.21311 12.9879 6.59882 14.6015 8.41598 14.9732C8.09057 15.0622 7.73592 15.1048 7.36786 15.1048C7.11192 15.1048 6.85354 15.0902 6.61101 15.0366C7.12898 16.6197 8.59879 17.7837 10.3465 17.8214C8.98636 18.8854 7.25939 19.5265 5.38982 19.5265C5.06198 19.5265 4.74754 19.5118 4.43311 19.4716C6.20395 20.6136 8.30264 21.2656 10.5659 21.2656C17.9222 21.2656 21.9441 15.1719 21.9441 9.88981C21.9441 9.71309 21.938 9.54247 21.9295 9.37306C22.7229 8.81 23.3895 8.10678 23.9331 7.29753Z" fill="white"/>
</svg>
