<svg width="220" height="64" viewBox="0 0 220 64" fill="none" xmlns="http://www.w3.org/2000/svg">
<path d="M211.852 64H8.14815C3.6687 64 0 60.3979 0 56V7.99999C0 3.602 3.6687 0 8.14815 0H211.852C216.331 0 220 3.602 220 7.99999V56C220 60.3979 216.331 64 211.852 64Z" fill="black"/>
<path d="M211.852 1.282C215.624 1.282 218.694 4.29599 218.694 7.99999V56C218.694 59.7042 215.624 62.7179 211.852 62.7179H8.14815C4.37556 62.7179 1.30574 59.7042 1.30574 56V7.99999C1.30574 4.29599 4.37556 1.282 8.14815 1.282H211.852ZM211.852 0H8.14815C3.6687 0 0 3.602 0 7.99999V56C0 60.3979 3.6687 64 8.14815 64H211.852C216.331 64 220 60.3979 220 56V7.99999C220 3.602 216.331 0 211.852 0Z" fill="#A6A6A6"/>
<path d="M17.0053 12.0594C16.5266 12.5514 16.2495 13.3174 16.2495 14.3094V49.6934C16.2495 50.6854 16.5266 51.4513 17.0053 51.9432L17.1234 52.0515L37.3186 32.2314V31.7634L17.1234 11.9434L17.0053 12.0594Z" fill="url(#paint0_linear_308_925)"/>
<path d="M44.0429 38.8423L37.3186 32.2323V31.7643L44.0511 25.1543L44.2018 25.2403L52.1748 29.6943C54.4501 30.9583 54.4501 33.0383 52.1748 34.3103L44.2018 38.7563L44.0429 38.8423Z" fill="url(#paint1_linear_308_925)"/>
<path d="M44.2019 38.758L37.3187 32L17.0054 51.9458C17.7611 52.7262 18.9935 52.8201 20.395 52.0398L44.2019 38.758Z" fill="url(#paint2_linear_308_925)"/>
<path d="M44.2019 25.243L20.395 11.961C18.9935 11.1891 17.7611 11.283 17.0054 12.063L37.3187 32.001L44.2019 25.243Z" fill="url(#paint3_linear_308_925)"/>
<path d="M77.2729 16.3884C77.2729 17.7244 76.8655 18.7944 76.0629 19.5924C75.1401 20.5384 73.9382 21.0144 72.4655 21.0144C71.0579 21.0144 69.856 20.5304 68.8701 19.5764C67.8821 18.6084 67.3892 17.4204 67.3892 15.9984C67.3892 14.5764 67.8821 13.3884 68.8701 12.4284C69.856 11.4664 71.0579 10.9824 72.4655 10.9824C73.1662 10.9824 73.8343 11.1244 74.4719 11.3884C75.1075 11.6544 75.6249 12.0144 75.9997 12.4584L75.1482 13.3024C74.4943 12.5444 73.6042 12.1704 72.4655 12.1704C71.4388 12.1704 70.5486 12.5224 69.7929 13.2324C69.0453 13.9444 68.6705 14.8664 68.6705 15.9984C68.6705 17.1304 69.0453 18.0604 69.7929 18.7724C70.5486 19.4744 71.4388 19.8344 72.4655 19.8344C73.5553 19.8344 74.4719 19.4744 75.1951 18.7644C75.6718 18.2944 75.9427 17.6464 76.014 16.8184H72.4655V15.6624H77.1995C77.2566 15.9124 77.2729 16.1544 77.2729 16.3884Z" fill="white" stroke="white" stroke-width="0.0651852" stroke-miterlimit="10"/>
<path d="M84.7836 12.3811H80.3368V15.4211H84.3457V16.5771H80.3368V19.6171H84.7836V20.7951H79.0779V11.2031H84.7836V12.3811Z" fill="white" stroke="white" stroke-width="0.0651852" stroke-miterlimit="10"/>
<path d="M90.0839 20.7951H88.825V12.3811H86.0974V11.2031H92.8135V12.3811H90.0839V20.7951Z" fill="white" stroke="white" stroke-width="0.0651852" stroke-miterlimit="10"/>
<path d="M97.6738 20.7951V11.2031H98.9307V20.7951H97.6738Z" fill="white" stroke="white" stroke-width="0.0651852" stroke-miterlimit="10"/>
<path d="M104.502 20.7951H103.253V12.3811H100.515V11.2031H107.24V12.3811H104.502V20.7951Z" fill="white" stroke="white" stroke-width="0.0651852" stroke-miterlimit="10"/>
<path d="M119.955 19.5604C118.992 20.5304 117.798 21.0144 116.374 21.0144C114.942 21.0144 113.748 20.5304 112.785 19.5604C111.823 18.5924 111.344 17.4044 111.344 15.9984C111.344 14.5924 111.823 13.4044 112.785 12.4364C113.748 11.4664 114.942 10.9824 116.374 10.9824C117.79 10.9824 118.983 11.4664 119.947 12.4444C120.917 13.4204 121.395 14.6004 121.395 15.9984C121.395 17.4044 120.917 18.5924 119.955 19.5604ZM113.716 18.7564C114.441 19.4744 115.323 19.8344 116.374 19.8344C117.417 19.8344 118.307 19.4744 119.024 18.7564C119.747 18.0384 120.114 17.1164 120.114 15.9984C120.114 14.8804 119.747 13.9584 119.024 13.2404C118.307 12.5224 117.417 12.1624 116.374 12.1624C115.323 12.1624 114.441 12.5224 113.716 13.2404C112.992 13.9584 112.626 14.8804 112.626 15.9984C112.626 17.1164 112.992 18.0384 113.716 18.7564Z" fill="white" stroke="white" stroke-width="0.0651852" stroke-miterlimit="10"/>
<path d="M123.161 20.7951V11.2031H124.689L129.44 18.6631H129.495L129.44 16.8191V11.2031H130.696V20.7951H129.385L124.41 12.9671H124.355L124.41 14.8191V20.7951H123.161Z" fill="white" stroke="white" stroke-width="0.0651852" stroke-miterlimit="10"/>
<path d="M111.035 34.8034C107.207 34.8034 104.08 37.6634 104.08 41.6092C104.08 45.5235 107.207 48.4133 111.035 48.4133C114.87 48.4133 117.997 45.5235 117.997 41.6092C117.997 37.6634 114.87 34.8034 111.035 34.8034ZM111.035 45.7335C108.935 45.7335 107.128 44.0314 107.128 41.6092C107.128 39.1554 108.935 37.4834 111.035 37.4834C113.135 37.4834 114.95 39.1554 114.95 41.6092C114.95 44.0314 113.135 45.7335 111.035 45.7335ZM95.8608 34.8034C92.0251 34.8034 88.9064 37.6634 88.9064 41.6092C88.9064 45.5235 92.0251 48.4133 95.8608 48.4133C99.6945 48.4133 102.815 45.5235 102.815 41.6092C102.815 37.6634 99.6945 34.8034 95.8608 34.8034ZM95.8608 45.7335C93.7586 45.7335 91.9456 44.0314 91.9456 41.6092C91.9456 39.1554 93.7586 37.4834 95.8608 37.4834C97.961 37.4834 99.7678 39.1554 99.7678 41.6092C99.7678 44.0314 97.961 45.7335 95.8608 45.7335ZM77.8045 36.8894V39.7814H84.8384C84.6327 41.3975 84.0827 42.5852 83.2393 43.4135C82.2127 44.4133 80.6136 45.5235 77.8045 45.5235C73.4758 45.5235 70.0862 42.0933 70.0862 37.8434C70.0862 33.5934 73.4758 30.1634 77.8045 30.1634C80.1451 30.1634 81.848 31.0614 83.1049 32.2254L85.1806 30.1874C83.4227 28.5394 81.0841 27.2734 77.8045 27.2734C71.8686 27.2734 66.8799 32.0154 66.8799 37.8434C66.8799 43.6716 71.8686 48.4133 77.8045 48.4133C81.0128 48.4133 83.4227 47.3815 85.3171 45.4455C87.2584 43.5395 87.8634 40.8594 87.8634 38.6954C87.8634 38.0234 87.8064 37.4054 87.7045 36.8894H77.8045ZM151.639 39.1314C151.067 37.6094 149.3 34.8034 145.703 34.8034C142.138 34.8034 139.17 37.5614 139.17 41.6092C139.17 45.4213 142.108 48.4133 146.045 48.4133C149.229 48.4133 151.067 46.5073 151.822 45.3975L149.459 43.8513C148.671 44.9836 147.597 45.7335 146.045 45.7335C144.503 45.7335 143.397 45.0394 142.688 43.6716L151.959 39.9054L151.639 39.1314ZM142.187 41.3975C142.108 38.7734 144.263 37.4294 145.807 37.4294C147.017 37.4294 148.044 38.0234 148.386 38.8734L142.187 41.3975ZM134.652 47.9994H137.7V27.9994H134.652V47.9994ZM129.661 36.3194H129.56C128.875 35.5234 127.569 34.8034 125.915 34.8034C122.444 34.8034 119.27 37.7954 119.27 41.6314C119.27 45.4455 122.444 48.4133 125.915 48.4133C127.569 48.4133 128.875 47.6876 129.56 46.8675H129.661V47.8435C129.661 50.4453 128.246 51.8435 125.962 51.8435C124.1 51.8435 122.945 50.5233 122.469 49.4135L119.818 50.4995C120.582 52.3034 122.605 54.5233 125.962 54.5233C129.535 54.5233 132.55 52.4593 132.55 47.4373V35.2174H129.661V36.3194ZM126.176 45.7335C124.076 45.7335 122.318 44.0076 122.318 41.6314C122.318 39.2334 124.076 37.4834 126.176 37.4834C128.246 37.4834 129.877 39.2334 129.877 41.6314C129.877 44.0076 128.246 45.7335 126.176 45.7335ZM165.906 27.9994H158.618V47.9994H161.657V40.4214H165.906C169.282 40.4214 172.592 38.0234 172.592 34.2094C172.592 30.3974 169.274 27.9994 165.906 27.9994ZM165.986 37.6394H161.657V30.7814H165.986C168.255 30.7814 169.551 32.6314 169.551 34.2094C169.551 35.7574 168.255 37.6394 165.986 37.6394ZM184.773 34.7654C182.577 34.7654 180.294 35.7174 179.355 37.8274L182.052 38.9374C182.632 37.8274 183.7 37.4674 184.828 37.4674C186.405 37.4674 188.004 38.3974 188.029 40.0394V40.2494C187.479 39.9374 186.301 39.4754 184.853 39.4754C181.948 39.4754 178.988 41.0455 178.988 43.9756C178.988 46.6554 181.367 48.3813 184.042 48.3813C186.087 48.3813 187.216 47.4755 187.925 46.4215H188.029V47.9674H190.964V40.2954C190.964 36.7494 188.267 34.7654 184.773 34.7654ZM184.407 45.7253C183.413 45.7253 182.027 45.2412 182.027 44.0314C182.027 42.4835 183.755 41.8894 185.25 41.8894C186.588 41.8894 187.216 42.1795 188.029 42.5614C187.79 44.4133 186.167 45.7253 184.407 45.7253ZM201.658 35.2034L198.165 43.8734H198.061L194.449 35.2034H191.172L196.598 47.3196L193.502 54.0613H196.678L205.04 35.2034H201.658ZM174.262 47.9994H177.31V27.9994H174.262V47.9994Z" fill="white"/>
<defs>
<linearGradient id="paint0_linear_308_925" x1="35.5255" y1="50.0618" x2="8.67818" y2="22.7174" gradientUnits="userSpaceOnUse">
<stop stop-color="#00A0FF"/>
<stop offset="0.0066" stop-color="#00A1FF"/>
<stop offset="0.2601" stop-color="#00BEFF"/>
<stop offset="0.5122" stop-color="#00D2FF"/>
<stop offset="0.7604" stop-color="#00DFFF"/>
<stop offset="1" stop-color="#00E3FF"/>
</linearGradient>
<linearGradient id="paint1_linear_308_925" x1="55.1374" y1="31.9961" x2="15.7056" y2="31.9961" gradientUnits="userSpaceOnUse">
<stop stop-color="#FFE000"/>
<stop offset="0.4087" stop-color="#FFBD00"/>
<stop offset="0.7754" stop-color="#FFA500"/>
<stop offset="1" stop-color="#FF9C00"/>
</linearGradient>
<linearGradient id="paint2_linear_308_925" x1="40.459" y1="28.3262" x2="4.05187" y2="-8.75511" gradientUnits="userSpaceOnUse">
<stop stop-color="#FF3A44"/>
<stop offset="1" stop-color="#C31162"/>
</linearGradient>
<linearGradient id="paint3_linear_308_925" x1="11.8921" y1="63.7192" x2="28.1495" y2="47.1609" gradientUnits="userSpaceOnUse">
<stop stop-color="#32A071"/>
<stop offset="0.0685" stop-color="#2DA771"/>
<stop offset="0.4762" stop-color="#15CF74"/>
<stop offset="0.8009" stop-color="#06E775"/>
<stop offset="1" stop-color="#00F076"/>
</linearGradient>
</defs>
</svg>
