<svg width="320" height="82" viewBox="0 0 320 82" fill="none" xmlns="http://www.w3.org/2000/svg">
<path d="M5.7 30.9H0V20.2H5.7V18.2C5.7 15.7 6.1 13.4 6.8 11.4C7.6 9.3 8.7 7.5 10.1 6C11.5 4.5 13.2 3.4 15.1 2.7C17.1 1.9 19.3 1.5 21.6 1.5C22.4 1.5 23.1 1.6 23.8 1.7C24.5 1.8 25.1 1.9 25.7 2C26.3 2.2 26.9 2.4 27.3 2.5V12.6C27 12.5 26.8 12.5 26.5 12.4C26.2 12.3 25.9 12.3 25.6 12.2C25.3 12.1 24.8 12.1 24.3 12.1C22.2 12.1 20.6 12.7 19.4 13.9C18.2 15 17.7 16.6 17.7 18.7V20.2H27.5V30.8H17.7V65.7H5.7V30.9Z" fill="white"/>
<path d="M61.2 65.8L44.7 44.5V65.8H32.9V2H44.7V38.4L59.1 19.2H72.5L55.5 41.5L74.5 65.8H61.2Z" fill="white"/>
<path d="M89 65.8H77.2V19.2H89V65.8ZM83.3 13.2C81.5 13.2 79.9 12.6 78.6 11.3C77.3 10 76.6 8.4 76.6 6.6C76.6 4.8 77.3 3.3 78.6 2C80 0.7 81.6 0 83.3 0C85.1 0 86.6 0.7 87.9 2C89.3 3.3 90 4.8 90 6.6C90 8.4 89.3 9.9 87.9 11.3C86.7 12.5 85.1 13.2 83.3 13.2Z" fill="white"/>
<path d="M117.8 66.3C114.8 66.3 112 65.7 109.4 64.6C106.7 63.4 104.4 61.7 102.3 59.6C100.3 57.4 98.7 54.9 97.5 52C96.3 49.1 95.8 45.9 95.8 42.5C95.8 39.1 96.4 35.9 97.5 33C98.7 30.1 100.3 27.6 102.3 25.5C104.4 23.3 106.7 21.7 109.4 20.5C112.1 19.3 114.9 18.7 117.8 18.7C119.7 18.7 121.4 19 122.9 19.5C124.4 20 125.7 20.5 126.8 21C128 21.7 129.1 22.4 130.1 23.2V2H142V65.8H133.3L131.2 61.2C130.1 62.1 128.9 63 127.6 63.7C126.4 64.4 125 65 123.4 65.5C121.7 66.1 119.8 66.3 117.8 66.3ZM131.2 42.5C131.2 38.7 130.1 35.6 127.8 33.3C125.5 31 122.7 29.9 119.4 29.9C116.1 29.9 113.2 31 111 33.3C108.7 35.6 107.6 38.7 107.6 42.5C107.6 46.3 108.7 49.4 111 51.7C113.3 54 116.1 55.1 119.4 55.1C122.7 55.1 125.6 54 127.8 51.7C130 49.4 131.2 46.4 131.2 42.5Z" fill="white"/>
<path d="M175.4 18.7C178.4 18.7 181.2 19.3 183.8 20.5C186.5 21.6 188.8 23.3 190.8 25.5C192.9 27.6 194.5 30.1 195.6 33C196.8 35.9 197.5 39.1 197.5 42.5C197.5 45.9 196.9 49.1 195.6 52C194.4 54.9 192.8 57.3999 190.8 59.5999C188.8 61.6999 186.5 63.2999 183.8 64.5999C181.1 65.6999 178.3 66.3 175.4 66.3C173.4 66.3 171.7 66.0999 170.2 65.5999C168.8 65.0999 167.5 64.5999 166.4 64.0999C165.2 63.3999 164.1 62.5999 163.1 61.7999V82H151.3V19.2H160L162.1 23.7999C163.1 22.8999 164.3 21.9999 165.7 21.2999C166.9 20.6999 168.3 20.1 169.9 19.6C171.5 19 173.4 18.7 175.4 18.7ZM162 42.5C162 46.2999 163.1 49.4 165.4 51.7C167.7 54 170.5 55.0999 173.8 55.0999C177.1 55.0999 180 54 182.2 51.7C184.5 49.4 185.6 46.2999 185.6 42.5C185.6 38.7 184.5 35.5999 182.2 33.2999C179.9 30.9999 177.1 29.9 173.8 29.9C170.5 29.9 167.6 30.9999 165.4 33.2999C163.2 35.5999 162 38.7 162 42.5Z" fill="white"/>
<path d="M213.5 42.5C213.5 46.2999 214.6 49.4 216.9 51.7C219.2 54 222 55.0999 225.3 55.0999C228.7 55.0999 231.5 54 233.7 51.7C236 49.4 237.1 46.2999 237.1 42.5C237.1 38.7 236 35.5999 233.7 33.2999C231.4 30.9999 228.6 29.9 225.3 29.9C221.9 29.9 219.1 30.9999 216.9 33.2999C214.7 35.5999 213.5 38.7 213.5 42.5ZM249 42.5C249 45.7999 248.3 48.9 247 51.7999C245.8 54.5999 244 57.0999 241.9 59.2999C239.8 61.5 237.3 63.2 234.4 64.5C231.6 65.7 228.6 66.3 225.3 66.3C222.1 66.3 219 65.7 216.1 64.5C213.3 63.2 210.8 61.5 208.6 59.2999C206.5 57.0999 204.8 54.5999 203.5 51.7999C202.3 48.9 201.6 45.7999 201.6 42.5C201.6 39.2 202.2 36.0999 203.5 33.2999C204.8 30.4 206.5 27.9 208.6 25.7C210.8 23.5 213.3 21.9 216.1 20.6C219 19.3 222 18.7 225.3 18.7C228.5 18.7 231.5 19.3 234.4 20.6C237.3 21.8 239.8 23.5 241.9 25.7C244.1 27.9 245.8 30.4 247 33.2999C248.4 36.0999 249 39.2 249 42.5Z" fill="white"/>
<path d="M275.2 66.3C272.2 66.3 269.4 65.7 266.8 64.6C264.1 63.4 261.8 61.7 259.7 59.6C257.7 57.4 256.1 54.9 254.9 52C253.7 49.1 253.2 45.9 253.2 42.5C253.2 39.1 253.8 35.9 254.9 33C256.1 30.1 257.7 27.6 259.7 25.5C261.8 23.3 264.1 21.7 266.8 20.5C269.5 19.3 272.3 18.7 275.2 18.7C277.1 18.7 278.8 19 280.3 19.5C281.8 20 283.1 20.5 284.2 21C285.4 21.7 286.5 22.4 287.5 23.2V2H299.3V65.8H290.6L288.5 61.2C287.4 62.1 286.2 63 284.9 63.7C283.7 64.4 282.3 65 280.7 65.5C279.1 66.1 277.3 66.3 275.2 66.3ZM288.6 42.5C288.6 38.7 287.5 35.6 285.2 33.3C282.9 31 280.1 29.9 276.8 29.9C273.5 29.9 270.6 31 268.4 33.3C266.1 35.6 265 38.7 265 42.5C265 46.3 266.1 49.4 268.4 51.7C270.7 54 273.5 55.1 276.8 55.1C280.1 55.1 283 54 285.2 51.7C287.5 49.4 288.6 46.4 288.6 42.5Z" fill="white"/>
<path d="M306.6 59.7001C306.6 57.9001 307.3 56.4001 308.6 55.1001C310 53.8001 311.6 53.1001 313.3 53.1001C315.1 53.1001 316.6 53.8001 317.9 55.1001C319.3 56.4001 320 57.9001 320 59.7001C320 61.5001 319.3 63.0001 317.9 64.4001C316.6 65.7001 315.1 66.3001 313.3 66.3001C311.5 66.3001 309.9 65.7001 308.6 64.4001C307.3 63.0001 306.6 61.5001 306.6 59.7001Z" fill="white"/>
<path d="M5.7 30.9H0V20.2H5.7V18.2C5.7 15.7 6.1 13.4 6.8 11.4C7.6 9.3 8.7 7.5 10.1 6C11.5 4.5 13.2 3.4 15.1 2.7C17.1 1.9 19.3 1.5 21.6 1.5C22.4 1.5 23.1 1.6 23.8 1.7C24.5 1.8 25.1 1.9 25.7 2C26.3 2.2 26.9 2.4 27.3 2.5V12.6C27 12.5 26.8 12.5 26.5 12.4C26.2 12.3 25.9 12.3 25.6 12.2C25.3 12.1 24.8 12.1 24.3 12.1C22.2 12.1 20.6 12.7 19.4 13.9C18.2 15 17.7 16.6 17.7 18.7V20.2H27.5V30.8H17.7V65.7H5.7V30.9Z" fill="white"/>
<path d="M61.2 65.8L44.7 44.5V65.8H32.9V2H44.7V38.4L59.1 19.2H72.5L55.5 41.5L74.5 65.8H61.2Z" fill="white"/>
<path d="M89 65.8H77.2V19.2H89V65.8ZM83.3 13.2C81.5 13.2 79.9 12.6 78.6 11.3C77.3 10 76.6 8.4 76.6 6.6C76.6 4.8 77.3 3.3 78.6 2C80 0.7 81.6 0 83.3 0C85.1 0 86.6 0.7 87.9 2C89.3 3.3 90 4.8 90 6.6C90 8.4 89.3 9.9 87.9 11.3C86.7 12.5 85.1 13.2 83.3 13.2Z" fill="white"/>
<path d="M117.8 66.3C114.8 66.3 112 65.7 109.4 64.6C106.7 63.4 104.4 61.7 102.3 59.6C100.3 57.4 98.7 54.9 97.5 52C96.3 49.1 95.8 45.9 95.8 42.5C95.8 39.1 96.4 35.9 97.5 33C98.7 30.1 100.3 27.6 102.3 25.5C104.4 23.3 106.7 21.7 109.4 20.5C112.1 19.3 114.9 18.7 117.8 18.7C119.7 18.7 121.4 19 122.9 19.5C124.4 20 125.7 20.5 126.8 21C128 21.7 129.1 22.4 130.1 23.2V2H142V65.8H133.3L131.2 61.2C130.1 62.1 128.9 63 127.6 63.7C126.4 64.4 125 65 123.4 65.5C121.7 66.1 119.8 66.3 117.8 66.3ZM131.2 42.5C131.2 38.7 130.1 35.6 127.8 33.3C125.5 31 122.7 29.9 119.4 29.9C116.1 29.9 113.2 31 111 33.3C108.7 35.6 107.6 38.7 107.6 42.5C107.6 46.3 108.7 49.4 111 51.7C113.3 54 116.1 55.1 119.4 55.1C122.7 55.1 125.6 54 127.8 51.7C130 49.4 131.2 46.4 131.2 42.5Z" fill="white"/>
<path d="M175.4 18.7C178.4 18.7 181.2 19.3 183.8 20.5C186.5 21.6 188.8 23.3 190.8 25.5C192.9 27.6 194.5 30.1 195.6 33C196.8 35.9 197.5 39.1 197.5 42.5C197.5 45.9 196.9 49.1 195.6 52C194.4 54.9 192.8 57.3999 190.8 59.5999C188.8 61.6999 186.5 63.2999 183.8 64.5999C181.1 65.6999 178.3 66.3 175.4 66.3C173.4 66.3 171.7 66.0999 170.2 65.5999C168.8 65.0999 167.5 64.5999 166.4 64.0999C165.2 63.3999 164.1 62.5999 163.1 61.7999V82H151.3V19.2H160L162.1 23.7999C163.1 22.8999 164.3 21.9999 165.7 21.2999C166.9 20.6999 168.3 20.1 169.9 19.6C171.5 19 173.4 18.7 175.4 18.7ZM162 42.5C162 46.2999 163.1 49.4 165.4 51.7C167.7 54 170.5 55.0999 173.8 55.0999C177.1 55.0999 180 54 182.2 51.7C184.5 49.4 185.6 46.2999 185.6 42.5C185.6 38.7 184.5 35.5999 182.2 33.2999C179.9 30.9999 177.1 29.9 173.8 29.9C170.5 29.9 167.6 30.9999 165.4 33.2999C163.2 35.5999 162 38.7 162 42.5Z" fill="white"/>
<path d="M213.5 42.5C213.5 46.2999 214.6 49.4 216.9 51.7C219.2 54 222 55.0999 225.3 55.0999C228.7 55.0999 231.5 54 233.7 51.7C236 49.4 237.1 46.2999 237.1 42.5C237.1 38.7 236 35.5999 233.7 33.2999C231.4 30.9999 228.6 29.9 225.3 29.9C221.9 29.9 219.1 30.9999 216.9 33.2999C214.7 35.5999 213.5 38.7 213.5 42.5ZM249 42.5C249 45.7999 248.3 48.9 247 51.7999C245.8 54.5999 244 57.0999 241.9 59.2999C239.8 61.5 237.3 63.2 234.4 64.5C231.6 65.7 228.6 66.3 225.3 66.3C222.1 66.3 219 65.7 216.1 64.5C213.3 63.2 210.8 61.5 208.6 59.2999C206.5 57.0999 204.8 54.5999 203.5 51.7999C202.3 48.9 201.6 45.7999 201.6 42.5C201.6 39.2 202.2 36.0999 203.5 33.2999C204.8 30.4 206.5 27.9 208.6 25.7C210.8 23.5 213.3 21.9 216.1 20.6C219 19.3 222 18.7 225.3 18.7C228.5 18.7 231.5 19.3 234.4 20.6C237.3 21.8 239.8 23.5 241.9 25.7C244.1 27.9 245.8 30.4 247 33.2999C248.4 36.0999 249 39.2 249 42.5Z" fill="white"/>
<path d="M275.2 66.3C272.2 66.3 269.4 65.7 266.8 64.6C264.1 63.4 261.8 61.7 259.7 59.6C257.7 57.4 256.1 54.9 254.9 52C253.7 49.1 253.2 45.9 253.2 42.5C253.2 39.1 253.8 35.9 254.9 33C256.1 30.1 257.7 27.6 259.7 25.5C261.8 23.3 264.1 21.7 266.8 20.5C269.5 19.3 272.3 18.7 275.2 18.7C277.1 18.7 278.8 19 280.3 19.5C281.8 20 283.1 20.5 284.2 21C285.4 21.7 286.5 22.4 287.5 23.2V2H299.3V65.8H290.6L288.5 61.2C287.4 62.1 286.2 63 284.9 63.7C283.7 64.4 282.3 65 280.7 65.5C279.1 66.1 277.3 66.3 275.2 66.3ZM288.6 42.5C288.6 38.7 287.5 35.6 285.2 33.3C282.9 31 280.1 29.9 276.8 29.9C273.5 29.9 270.6 31 268.4 33.3C266.1 35.6 265 38.7 265 42.5C265 46.3 266.1 49.4 268.4 51.7C270.7 54 273.5 55.1 276.8 55.1C280.1 55.1 283 54 285.2 51.7C287.5 49.4 288.6 46.4 288.6 42.5Z" fill="white"/>
<path d="M306.6 59.7001C306.6 57.9001 307.3 56.4001 308.6 55.1001C310 53.8001 311.6 53.1001 313.3 53.1001C315.1 53.1001 316.6 53.8001 317.9 55.1001C319.3 56.4001 320 57.9001 320 59.7001C320 61.5001 319.3 63.0001 317.9 64.4001C316.6 65.7001 315.1 66.3001 313.3 66.3001C311.5 66.3001 309.9 65.7001 308.6 64.4001C307.3 63.0001 306.6 61.5001 306.6 59.7001Z" fill="#00BC70"/>
</svg>
