<svg width="41" height="40" viewBox="0 0 41 40" fill="none" xmlns="http://www.w3.org/2000/svg">
<path fill-rule="evenodd" clip-rule="evenodd" d="M39.3855 20C39.3855 30.4934 30.8789 39 20.3855 39C9.89209 39 1.3855 30.4934 1.3855 20C1.3855 9.50659 9.89209 1 20.3855 1C30.8789 1 39.3855 9.50659 39.3855 20ZM40.3855 20C40.3855 31.0457 31.4312 40 20.3855 40C9.3398 40 0.385498 31.0457 0.385498 20C0.385498 8.9543 9.3398 0 20.3855 0C31.4312 0 40.3855 8.9543 40.3855 20ZM11.9988 20.5H28.773V19.5H11.9988V20.5Z" fill="white"/>
</svg>
