<svg width="41" height="40" viewBox="0 0 41 40" fill="none" xmlns="http://www.w3.org/2000/svg">
<path fill-rule="evenodd" clip-rule="evenodd" d="M39.2041 20C39.2041 30.4934 30.6975 39 20.2041 39C9.71069 39 1.2041 30.4934 1.2041 20C1.2041 9.50659 9.71069 1 20.2041 1C30.6975 1 39.2041 9.50659 39.2041 20ZM40.2041 20C40.2041 31.0457 31.2498 40 20.2041 40C9.15841 40 0.204102 31.0457 0.204102 20C0.204102 8.9543 9.15841 0 20.2041 0C31.2498 0 40.2041 8.9543 40.2041 20ZM19.7046 28.3875V20.5H11.8174V19.5H19.7046V11.6133H20.7046V19.5H28.5916V20.5H20.7046V28.3875H19.7046Z" fill="white"/>
</svg>
