<svg width="220" height="64" viewBox="0 0 220 64" fill="none" xmlns="http://www.w3.org/2000/svg">
<g clip-path="url(#clip0_308_940)">
<path d="M218.778 56.6186C218.778 60.0294 215.977 62.7921 212.513 62.7921H7.49514C4.03267 62.7921 1.22217 60.0294 1.22217 56.6186V7.38841C1.22217 3.97938 4.03267 1.20703 7.49514 1.20703H212.511C215.977 1.20703 218.776 3.97938 218.776 7.38841L218.778 56.6186Z" fill="black"/>
<path d="M211.852 1.282C215.624 1.282 218.694 4.29599 218.694 7.99999V56C218.694 59.7042 215.624 62.7179 211.852 62.7179H8.14815C4.37556 62.7179 1.30574 59.7042 1.30574 56V7.99999C1.30574 4.29599 4.37556 1.282 8.14815 1.282H211.852ZM211.852 0H8.14815C3.6687 0 0 3.602 0 7.99999V56C0 60.3979 3.6687 64 8.14815 64H211.852C216.331 64 220 60.3979 220 56V7.99999C220 3.602 216.331 0 211.852 0Z" fill="#A6A6A6"/>
<path d="M49.0976 31.6539C49.0503 26.4971 53.3982 23.9883 53.597 23.8715C51.1346 20.3467 47.3181 19.8651 45.9769 19.8267C42.7714 19.4955 39.6621 21.7099 38.0292 21.7099C36.3637 21.7099 33.8492 19.8587 31.1391 19.9131C27.6517 19.9659 24.3892 21.9483 22.5998 25.0267C18.9071 31.3035 21.6612 40.5275 25.1991 45.6012C26.9689 48.0861 29.0369 50.8603 31.7437 50.7626C34.3918 50.6555 35.381 49.1052 38.5767 49.1052C41.7431 49.1052 42.672 50.7626 45.4326 50.7003C48.2746 50.6555 50.064 48.2043 51.7718 45.6972C53.817 42.8492 54.6383 40.0443 54.6709 39.9003C54.6041 39.8779 49.1514 37.8347 49.0976 31.6539Z" fill="white"/>
<path d="M43.8826 16.4877C45.3069 14.7389 46.2814 12.3597 46.0109 9.94531C43.9494 10.0349 41.3713 11.3453 39.8867 13.0557C38.5732 14.5629 37.3999 17.0333 37.703 19.3565C40.0187 19.5261 42.3963 18.2093 43.8826 16.4877Z" fill="white"/>
<path d="M79.9334 16.0139C79.9334 17.8971 79.3582 19.3147 78.2093 20.2667C77.1451 21.1451 75.6328 21.5851 73.674 21.5851C72.7027 21.5851 71.8716 21.5435 71.1758 21.4603V11.1707C72.0835 11.0267 73.0613 10.9531 74.1173 10.9531C75.9832 10.9531 77.3896 11.3515 78.338 12.1483C79.4005 13.0491 79.9334 14.3371 79.9334 16.0139ZM78.1327 16.0603C78.1327 14.8395 77.8035 13.9035 77.1451 13.2507C76.4867 12.5995 75.5253 12.2731 74.259 12.2731C73.7213 12.2731 73.2633 12.3083 72.8836 12.3819V20.2043C73.0939 20.2363 73.4784 20.2507 74.0374 20.2507C75.3444 20.2507 76.3531 19.8939 77.0636 19.1803C77.7742 18.4667 78.1327 17.4267 78.1327 16.0603Z" fill="white"/>
<path d="M89.4813 17.6593C89.4813 18.8193 89.1439 19.7697 88.4693 20.5153C87.762 21.2817 86.825 21.6641 85.6549 21.6641C84.5272 21.6641 83.6293 21.2977 82.9595 20.5617C82.2914 19.8273 81.9573 18.9009 81.9573 17.7841C81.9573 16.6161 82.3011 15.6577 82.9921 14.9137C83.6831 14.1697 84.6119 13.7969 85.782 13.7969C86.9097 13.7969 87.8158 14.1633 88.5019 14.8977C89.1537 15.6113 89.4813 16.5329 89.4813 17.6593ZM87.7099 17.7137C87.7099 17.0177 87.5567 16.4209 87.2519 15.9233C86.8934 15.3217 86.3834 15.0209 85.7201 15.0209C85.034 15.0209 84.5125 15.3217 84.154 15.9233C83.8476 16.4209 83.6961 17.0273 83.6961 17.7441C83.6961 18.4401 83.8493 19.0369 84.154 19.5345C84.5239 20.1361 85.0389 20.4369 85.7038 20.4369C86.3556 20.4369 86.8673 20.1313 87.2356 19.5185C87.5518 19.0113 87.7099 18.4097 87.7099 17.7137Z" fill="white"/>
<path d="M102.284 13.9512L99.88 21.4936H98.3155L97.3198 18.2184C97.0672 17.4008 96.8619 16.588 96.7022 15.7816H96.6712C96.5229 16.6104 96.3176 17.4216 96.0536 18.2184L94.996 21.4936H93.4136L91.1533 13.9512H92.9084L93.777 17.5368C93.9872 18.3848 94.16 19.1928 94.2985 19.9576H94.3295C94.4566 19.3272 94.6668 18.524 94.9634 17.5528L96.0536 13.9528H97.4453L98.4899 17.476C98.7425 18.3352 98.9478 19.1624 99.1059 19.9592H99.1532C99.2689 19.1832 99.4432 18.356 99.6747 17.476L100.607 13.9528H102.284V13.9512Z" fill="white"/>
<path d="M111.137 21.4918H109.43V17.1718C109.43 15.8406 108.915 15.175 107.881 15.175C107.375 15.175 106.966 15.3574 106.648 15.7238C106.333 16.0902 106.174 16.5222 106.174 17.0166V21.4902H104.466V16.1046C104.466 15.4422 104.445 14.7238 104.404 13.9462H105.905L105.985 15.1254H106.032C106.231 14.759 106.527 14.4566 106.917 14.215C107.38 13.9334 107.898 13.791 108.465 13.791C109.182 13.791 109.778 14.0182 110.253 14.4742C110.842 15.0326 111.137 15.8662 111.137 16.9734V21.4918Z" fill="white"/>
<path d="M115.847 21.4915H114.141V10.4883H115.847V21.4915Z" fill="white"/>
<path d="M125.902 17.6593C125.902 18.8193 125.565 19.7697 124.89 20.5153C124.183 21.2817 123.244 21.6641 122.076 21.6641C120.946 21.6641 120.048 21.2977 119.38 20.5617C118.712 19.8273 118.378 18.9009 118.378 17.7841C118.378 16.6161 118.722 15.6577 119.413 14.9137C120.104 14.1697 121.033 13.7969 122.201 13.7969C123.33 13.7969 124.235 14.1633 124.923 14.8977C125.574 15.6113 125.902 16.5329 125.902 17.6593ZM124.129 17.7137C124.129 17.0177 123.976 16.4209 123.671 15.9233C123.314 15.3217 122.802 15.0209 122.141 15.0209C121.453 15.0209 120.932 15.3217 120.575 15.9233C120.268 16.4209 120.117 17.0273 120.117 17.7441C120.117 18.4401 120.27 19.0369 120.575 19.5345C120.945 20.1361 121.46 20.4369 122.124 20.4369C122.776 20.4369 123.286 20.1313 123.655 19.5185C123.972 19.0113 124.129 18.4097 124.129 17.7137Z" fill="white"/>
<path d="M134.168 21.4929H132.634L132.507 20.6241H132.46C131.935 21.3169 131.187 21.6641 130.216 21.6641C129.49 21.6641 128.904 21.4353 128.462 20.9809C128.061 20.5681 127.861 20.0545 127.861 19.4449C127.861 18.5233 128.252 17.8209 129.039 17.3345C129.825 16.8481 130.929 16.6097 132.352 16.6209V16.4801C132.352 15.4865 131.821 14.9905 130.757 14.9905C129.999 14.9905 129.331 15.1777 128.754 15.5489L128.407 14.4481C129.121 14.0145 130.002 13.7969 131.042 13.7969C133.05 13.7969 134.057 14.8369 134.057 16.9169V19.6945C134.057 20.4481 134.094 21.0481 134.168 21.4929ZM132.394 18.9009V17.7377C130.511 17.7057 129.569 18.2129 129.569 19.2577C129.569 19.6513 129.676 19.9457 129.896 20.1425C130.116 20.3393 130.397 20.4369 130.731 20.4369C131.105 20.4369 131.456 20.3201 131.775 20.0881C132.096 19.8545 132.293 19.5585 132.367 19.1953C132.385 19.1137 132.394 19.0145 132.394 18.9009Z" fill="white"/>
<path d="M143.872 21.4915H142.356L142.276 20.2803H142.229C141.745 21.2019 140.921 21.6627 139.762 21.6627C138.836 21.6627 138.066 21.3059 137.454 20.5923C136.843 19.8787 136.539 18.9523 136.539 17.8147C136.539 16.5939 136.869 15.6051 137.534 14.8499C138.178 14.1459 138.967 13.7939 139.905 13.7939C140.937 13.7939 141.659 14.1347 142.07 14.8179H142.102V10.4883H143.812V19.4595C143.812 20.1939 143.831 20.8707 143.872 21.4915ZM142.102 18.3107V17.0531C142.102 16.8355 142.086 16.6595 142.055 16.5251C141.959 16.1219 141.752 15.7827 141.437 15.5091C141.119 15.2355 140.736 15.0979 140.295 15.0979C139.658 15.0979 139.159 15.3459 138.792 15.8435C138.429 16.3411 138.245 16.9763 138.245 17.7523C138.245 18.4979 138.419 19.1027 138.77 19.5683C139.139 20.0643 139.638 20.3123 140.262 20.3123C140.823 20.3123 141.271 20.1059 141.612 19.6915C141.941 19.3091 142.102 18.8483 142.102 18.3107Z" fill="white"/>
<path d="M158.478 17.6593C158.478 18.8193 158.141 19.7697 157.466 20.5153C156.759 21.2817 155.823 21.6641 154.652 21.6641C153.526 21.6641 152.628 21.2977 151.956 20.5617C151.288 19.8273 150.954 18.9009 150.954 17.7841C150.954 16.6161 151.298 15.6577 151.989 14.9137C152.68 14.1697 153.609 13.7969 154.78 13.7969C155.907 13.7969 156.814 14.1633 157.499 14.8977C158.151 15.6113 158.478 16.5329 158.478 17.6593ZM156.708 17.7137C156.708 17.0177 156.555 16.4209 156.25 15.9233C155.89 15.3217 155.382 15.0209 154.717 15.0209C154.032 15.0209 153.511 15.3217 153.151 15.9233C152.844 16.4209 152.693 17.0273 152.693 17.7441C152.693 18.4401 152.846 19.0369 153.151 19.5345C153.521 20.1361 154.036 20.4369 154.701 20.4369C155.352 20.4369 155.866 20.1313 156.234 19.5185C156.549 19.0113 156.708 18.4097 156.708 17.7137Z" fill="white"/>
<path d="M167.661 21.4918H165.955V17.1718C165.955 15.8406 165.44 15.175 164.405 15.175C163.898 15.175 163.489 15.3574 163.173 15.7238C162.857 16.0902 162.699 16.5222 162.699 17.0166V21.4902H160.989V16.1046C160.989 15.4422 160.97 14.7238 160.929 13.9462H162.428L162.508 15.1254H162.556C162.756 14.759 163.053 14.4566 163.44 14.215C163.905 13.9334 164.422 13.791 164.99 13.791C165.706 13.791 166.302 14.0182 166.776 14.4742C167.368 15.0326 167.661 15.8662 167.661 16.9734V21.4918Z" fill="white"/>
<path d="M179.155 15.2067H177.274V18.8707C177.274 19.8019 177.608 20.2675 178.27 20.2675C178.576 20.2675 178.831 20.2419 179.031 20.1891L179.075 21.4611C178.738 21.5859 178.295 21.6483 177.749 21.6483C177.074 21.6483 176.549 21.4467 176.169 21.0435C175.788 20.6403 175.599 19.9619 175.599 19.0099V15.2067H174.476V13.9507H175.599V12.5683L177.273 12.0723V13.9491H179.153V15.2067H179.155Z" fill="white"/>
<path d="M188.196 21.4915H186.487V17.2035C186.487 15.8515 185.972 15.1747 184.94 15.1747C184.148 15.1747 183.607 15.5667 183.31 16.3507C183.26 16.5155 183.231 16.7171 183.231 16.9539V21.4899H181.524V10.4883H183.231V15.0339H183.263C183.801 14.2067 184.572 13.7939 185.571 13.7939C186.278 13.7939 186.863 14.0211 187.328 14.4771C187.906 15.0451 188.196 15.8899 188.196 17.0067V21.4915Z" fill="white"/>
<path d="M197.522 17.3636C197.522 17.6644 197.5 17.9172 197.459 18.1236H192.337C192.36 18.8692 192.604 19.4372 193.078 19.8308C193.512 20.1828 194.071 20.3588 194.755 20.3588C195.513 20.3588 196.204 20.2404 196.827 20.002L197.094 21.1668C196.365 21.4772 195.508 21.6324 194.516 21.6324C193.326 21.6324 192.389 21.2884 191.711 20.6004C191.03 19.9124 190.693 18.9892 190.693 17.8308C190.693 16.6932 191.007 15.746 191.641 14.9908C192.303 14.1844 193.197 13.7812 194.327 13.7812C195.432 13.7812 196.271 14.1844 196.838 14.9908C197.296 15.6308 197.522 16.4228 197.522 17.3636ZM195.893 16.93C195.906 16.4324 195.793 16.0036 195.562 15.642C195.265 15.1764 194.814 14.9428 194.203 14.9428C193.646 14.9428 193.191 15.1701 192.844 15.626C192.56 15.9892 192.392 16.4228 192.337 16.93H195.893Z" fill="white"/>
<path d="M87.4217 50.4082H83.7208L81.6935 44.1535H74.647L72.7159 50.4082H69.1128L76.0941 29.1152H80.4061L87.4217 50.4082ZM81.0824 41.5295L79.2491 35.9696C79.0552 35.4016 78.6918 34.064 78.1556 31.9584H78.0904C77.8769 32.864 77.5331 34.2016 77.0605 35.9696L75.2598 41.5295H81.0824Z" fill="white"/>
<path d="M105.375 42.5414C105.375 45.1527 104.656 47.2167 103.219 48.7318C101.932 50.0807 100.333 50.7543 98.4247 50.7543C96.3649 50.7543 94.8852 50.0278 93.984 48.575H93.9188V56.6632H90.4444V40.1079C90.4444 38.4663 90.4004 36.7815 90.3157 35.0535H93.3712L93.5652 37.4871H93.6303C94.789 35.6535 96.5474 34.7383 98.9071 34.7383C100.752 34.7383 102.292 35.4535 103.524 36.8855C104.759 38.3191 105.375 40.2039 105.375 42.5414ZM101.836 42.6661C101.836 41.172 101.493 39.9399 100.806 38.9703C100.054 37.9591 99.0456 37.4535 97.781 37.4535C96.9238 37.4535 96.1449 37.7351 95.449 38.2903C94.7515 38.8503 94.2952 39.5815 94.0817 40.4871C93.9742 40.9095 93.9204 41.2552 93.9204 41.5272V44.0872C93.9204 45.204 94.2692 46.1463 94.9666 46.916C95.6641 47.6856 96.5702 48.0696 97.6849 48.0696C98.9935 48.0696 100.012 47.5736 100.74 46.5849C101.47 45.5941 101.836 44.2887 101.836 42.6661Z" fill="white"/>
<path d="M123.361 42.5414C123.361 45.1527 122.643 47.2167 121.204 48.7318C119.918 50.0807 118.319 50.7543 116.411 50.7543C114.351 50.7543 112.871 50.0278 111.972 48.575H111.907V56.6632H108.432V40.1079C108.432 38.4663 108.388 36.7815 108.303 35.0535H111.359L111.553 37.4871H111.618C112.775 35.6535 114.534 34.7383 116.895 34.7383C118.738 34.7383 120.278 35.4535 121.513 36.8855C122.744 38.3191 123.361 40.2039 123.361 42.5414ZM119.822 42.6661C119.822 41.172 119.478 39.9399 118.79 38.9703C118.039 37.9591 117.033 37.4535 115.767 37.4535C114.908 37.4535 114.131 37.7351 113.434 38.2903C112.736 38.8503 112.281 39.5815 112.068 40.4871C111.962 40.9095 111.907 41.2552 111.907 41.5272V44.0872C111.907 45.204 112.255 46.1463 112.95 46.916C113.647 47.684 114.553 48.0696 115.671 48.0696C116.98 48.0696 117.998 47.5736 118.727 46.5849C119.457 45.5941 119.822 44.2887 119.822 42.6661Z" fill="white"/>
<path d="M143.471 44.4345C143.471 46.2457 142.831 47.719 141.545 48.8566C140.132 50.1001 138.165 50.7208 135.637 50.7208C133.304 50.7208 131.433 50.279 130.017 49.3945L130.822 46.551C132.347 47.4568 134.021 47.911 135.844 47.911C137.153 47.911 138.172 47.6201 138.903 47.0408C139.632 46.4615 139.995 45.6841 139.995 44.7143C139.995 43.8503 139.695 43.1225 139.094 42.5321C138.496 41.9417 137.497 41.3928 136.102 40.8856C132.305 39.4952 130.408 37.4584 130.408 34.78C130.408 33.0296 131.073 31.5944 132.404 30.4776C133.731 29.3592 135.501 28.8008 137.714 28.8008C139.687 28.8008 141.326 29.1384 142.635 29.812L141.766 32.5928C140.544 31.94 139.162 31.6136 137.616 31.6136C136.394 31.6136 135.439 31.9096 134.754 32.4984C134.176 33.0248 133.886 33.6664 133.886 34.4264C133.886 35.268 134.216 35.964 134.881 36.5112C135.46 37.0168 136.511 37.564 138.036 38.1544C139.902 38.892 141.273 39.7544 142.154 40.7432C143.033 41.7288 143.471 42.9625 143.471 44.4345Z" fill="white"/>
<path d="M154.958 37.6122H151.128V45.0665C151.128 46.9627 151.803 47.91 153.156 47.91C153.777 47.91 154.292 47.857 154.699 47.7512L154.795 50.342C154.111 50.593 153.21 50.7194 152.093 50.7194C150.721 50.7194 149.649 50.3083 148.875 49.4874C148.104 48.6648 147.716 47.286 147.716 45.3483V37.609H145.435V35.049H147.716V32.2378L151.128 31.2266V35.049H154.958V37.6122Z" fill="white"/>
<path d="M172.237 42.6041C172.237 44.9643 171.55 46.902 170.177 48.417C168.738 49.9768 166.829 50.7547 164.448 50.7547C162.153 50.7547 160.326 50.0076 158.964 48.513C157.602 47.0185 156.92 45.1321 156.92 42.8585C156.92 40.4794 157.621 38.5306 159.028 37.0154C160.431 35.4986 162.324 34.7402 164.705 34.7402C167 34.7402 168.846 35.4874 170.239 36.9834C171.572 38.4346 172.237 40.3082 172.237 42.6041ZM168.633 42.7145C168.633 41.2987 168.325 40.0842 167.7 39.0714C166.972 37.8458 165.931 37.2346 164.581 37.2346C163.185 37.2346 162.124 37.8474 161.395 39.0714C160.771 40.0858 160.463 41.3196 160.463 42.7785C160.463 44.1947 160.771 45.409 161.395 46.4203C162.147 47.6458 163.196 48.257 164.55 48.257C165.877 48.257 166.918 47.633 167.669 46.3883C168.31 45.3561 168.633 44.129 168.633 42.7145Z" fill="white"/>
<path d="M183.531 38.0535C183.187 37.9911 182.82 37.9591 182.435 37.9591C181.213 37.9591 180.268 38.4119 179.603 39.3191C179.025 40.1191 178.735 41.1301 178.735 42.351V50.4072H175.262L175.294 39.8887C175.294 38.1191 175.25 36.5079 175.164 35.0551H178.19L178.317 37.9927H178.414C178.78 36.9831 179.359 36.1703 180.151 35.5607C180.925 35.0119 181.761 34.7383 182.662 34.7383C182.983 34.7383 183.273 34.7607 183.531 34.8007V38.0535Z" fill="white"/>
<path d="M199.069 42.0015C199.069 42.6128 199.028 43.1277 198.942 43.5486H188.519C188.56 45.0653 189.063 46.2255 190.031 47.0255C190.91 47.7406 192.045 48.0992 193.44 48.0992C194.984 48.0992 196.392 47.8575 197.658 47.3726L198.202 49.7406C196.722 50.374 194.975 50.6895 192.96 50.6895C190.535 50.6895 188.631 49.9888 187.246 48.5886C185.864 47.1888 185.172 45.3086 185.172 42.95C185.172 40.635 185.815 38.707 187.104 37.1694C188.454 35.5278 190.277 34.707 192.572 34.707C194.826 34.707 196.532 35.5278 197.69 37.1694C198.608 38.4734 199.069 40.0862 199.069 42.0015ZM195.756 41.1166C195.779 40.1054 195.552 39.2318 195.081 38.4942C194.48 37.5454 193.556 37.0718 192.313 37.0718C191.177 37.0718 190.253 37.5342 189.547 38.4622C188.969 39.1998 188.625 40.0846 188.519 41.1149H195.756V41.1166Z" fill="white"/>
</g>
<defs>
<clipPath id="clip0_308_940">
<rect width="220" height="64" fill="white"/>
</clipPath>
</defs>
</svg>
