<svg width="1814" height="2193" viewBox="0 0 1814 2193" fill="none" xmlns="http://www.w3.org/2000/svg">
<path d="M1804.26 52.5312C1530.22 102.556 1067.91 327.645 819.761 399.031C383.367 524.573 55.566 510.531 52.761 663.531C47.261 963.531 1093.26 444.531 1093.26 804.031C1093.26 1065.03 487.335 1042.81 545.261 1307.03C602.261 1567.03 1512.26 1207.03 1512.26 1504.03C1512.26 1747.91 1130.26 1616.03 1130.26 1818.53C1130.26 2021.03 1343.36 2142.33 1781.76 2139.53" stroke="white" stroke-width="105"/>
<path d="M1804.26 52.5312C1530.22 102.556 1067.91 327.645 819.761 399.031C383.367 524.573 55.566 510.531 52.761 663.531C47.261 963.531 1093.26 444.531 1093.26 804.031C1093.26 1065.03 487.335 1042.81 545.261 1307.03C602.261 1567.03 1512.26 1207.03 1512.26 1504.03C1512.26 1747.91 1130.26 1616.03 1130.26 1818.53C1130.26 2021.03 1343.36 2142.33 1781.76 2139.53" stroke="url(#paint0_linear_334_725)" stroke-width="105"/>
<defs>
<linearGradient id="paint0_linear_334_725" x1="217.761" y1="1054.53" x2="1598.26" y2="540.531" gradientUnits="userSpaceOnUse">
<stop stop-color="#00FFFF"/>
<stop offset="0.552864" stop-color="#B048E3"/>
<stop offset="1" stop-opacity="0"/>
<stop offset="1" stop-color="white" stop-opacity="0"/>
</linearGradient>
</defs>
</svg>
