<svg width="1755" height="2092" viewBox="0 0 1755 2092" fill="none" xmlns="http://www.w3.org/2000/svg">
<path d="M1754.28 2.5C1480.24 52.525 1017.92 277.613 769.778 349C333.385 474.542 5.58359 460.5 2.77858 613.5C-2.72142 913.5 1043.28 394.5 1043.28 754C1043.28 1015 437.352 992.775 495.279 1257C552.279 1517 1462.28 1157 1462.28 1454C1462.28 1697.88 1080.28 1566 1080.28 1768.5C1080.28 1971 1293.38 2092.3 1731.78 2089.5" stroke="white" stroke-width="4" stroke-dasharray="60 60"/>
<path d="M1754.28 2.5C1480.24 52.525 1017.92 277.613 769.778 349C333.385 474.542 5.58359 460.5 2.77858 613.5C-2.72142 913.5 1043.28 394.5 1043.28 754C1043.28 1015 437.352 992.775 495.279 1257C552.279 1517 1462.28 1157 1462.28 1454C1462.28 1697.88 1080.28 1566 1080.28 1768.5C1080.28 1971 1293.38 2092.3 1731.78 2089.5" stroke="url(#paint0_linear_334_726)" stroke-width="4" stroke-dasharray="60 60"/>
<defs>
<linearGradient id="paint0_linear_334_726" x1="172.677" y1="1278.54" x2="1677.15" y2="864.262" gradientUnits="userSpaceOnUse">
<stop stop-color="#00FFFF"/>
<stop offset="0.552864" stop-color="#B048E3"/>
<stop offset="1" stop-opacity="0"/>
<stop offset="1" stop-color="white" stop-opacity="0"/>
</linearGradient>
</defs>
</svg>
